<svg xmlns="http://www.w3.org/2000/svg" width="512" height="512"><path d="M507.474 376.159c-6.035 6.035-15.819 6.035-21.853 0L384.366 274.904l21.853-21.853 101.254 101.254c6.036 6.035 6.036 15.819.001 21.854z" fill="#484b63"/><path d="M320.507 512H4a4 4 0 01-4-4V60.66a4 4 0 014-4h316.507a4 4 0 014 4V508a4 4 0 01-4 4z" fill="#d8d5ed"/><path d="M91.292 476.177H37.481a4 4 0 01-4-4V313.288a4 4 0 014-4h53.811a4 4 0 014 4v158.889a4 4 0 01-4 4z" fill="#ff2c5c"/><path d="M188.129 476.177h-53.811a4 4 0 01-4-4v-220.7a4 4 0 014-4h53.811a4 4 0 014 4v220.7a4 4 0 01-4 4z" fill="#ffd659"/><path d="M287.026 476.177h-53.811a4 4 0 01-4-4V274.141a4 4 0 014-4h53.811a4 4 0 014 4v198.036a4 4 0 01-4 4z" fill="#4fc6f5"/><path d="M64.386 309.288v166.889h26.905a4 4 0 004-4V313.288a4 4 0 00-4-4H64.386z" fill="#e62753"/><path d="M161.223 247.477v228.7h26.905a4 4 0 004-4v-220.7a4 4 0 00-4-4h-26.905z" fill="#ffbd54"/><path d="M260.121 270.141v206.036h26.905a4 4 0 004-4V274.141a4 4 0 00-4-4h-26.905z" fill="#3bb3e3"/><g fill="#50536e"><path d="M45.843 105.601h226.64c4.143 0 7.5-3.358 7.5-7.5s-3.357-7.5-7.5-7.5H45.843c-4.143 0-7.5 3.358-7.5 7.5s3.357 7.5 7.5 7.5zM272.482 124.94H45.843c-4.143 0-7.5 3.358-7.5 7.5s3.357 7.5 7.5 7.5h226.64a7.5 7.5 0 10-.001-15zM272.482 159.28H45.843c-4.143 0-7.5 3.358-7.5 7.5s3.357 7.5 7.5 7.5h226.64a7.5 7.5 0 10-.001-15zM103.615 193.619H45.843c-4.143 0-7.5 3.358-7.5 7.5s3.357 7.5 7.5 7.5h57.772c4.143 0 7.5-3.358 7.5-7.5s-3.357-7.5-7.5-7.5z"/></g><circle transform="rotate(-45.001 297.118 163.803)" cx="297.118" cy="163.799" fill="#50536e" r="163.799"/><path d="M391.088 257.769c-51.815 51.815-136.124 51.815-187.94 0s-51.815-136.124 0-187.94 136.124-51.815 187.94 0 51.815 136.125 0 187.94z" fill="#b5fcff"/><path d="M391.088 69.829c-29.836-29.836-70.446-42.487-109.423-37.963 28.712 3.333 56.538 15.984 78.517 37.963 51.815 51.815 51.815 136.124 0 187.94-21.979 21.979-49.805 34.63-78.517 37.963 38.977 4.524 79.587-8.127 109.423-37.963 51.815-51.815 51.815-136.125 0-187.94z" fill="#71f6fc"/></svg>