<svg xmlns="http://www.w3.org/2000/svg" viewBox="0 0 435.104 435.104"><circle cx="154.112" cy="377.684" r="52.736"/><path d="M323.072 324.436c-29.267-2.88-55.327 18.51-58.207 47.777-2.88 29.267 18.51 55.327 47.777 58.207 3.468.341 6.962.341 10.43 0 29.267-2.88 50.657-28.94 47.777-58.207-2.488-25.285-22.493-45.289-47.777-47.777zM431.616 123.732a13.825 13.825 0 00-11.776-6.144h-58.368v-1.024c.004-61.927-50.194-112.132-112.121-112.136-61.926-.004-112.131 50.194-112.135 112.121v1.039h-43.52L78.848 50.004A15.358 15.358 0 0064 38.228H0v30.72h51.712l47.616 218.624a14.848 14.848 0 0014.848 12.288h267.776a15.36 15.36 0 0014.848-11.776l37.888-151.552a14.336 14.336 0 00-3.072-12.8zm-182.272 74.24c-44.96 0-81.408-36.448-81.408-81.408s36.448-81.408 81.408-81.408 81.408 36.448 81.408 81.408c-.279 44.844-36.564 81.128-81.408 81.408z"/><path d="M237.056 118.1l-28.16-28.672-22.016 21.504 38.912 39.424a15.36 15.36 0 0010.752 4.608 14.334 14.334 0 0010.752-4.096l64.512-60.928-20.992-22.528-53.76 50.688z"/></svg>