<svg height="512" viewBox="0 0 55 58" width="512" xmlns="http://www.w3.org/2000/svg"><g fill-rule="nonzero" transform="translate(0 -1)" fill="none"><path d="M5.792 42.093C4.763 39.794 0 39 0 39a5.318 5.318 0 015.6-3.07zM7 44.91h1.7A5.276 5.276 0 0114 48s-4.55.76-5.72 2.94z" fill="#f3d55b"/><path d="M13 7.04V7S11.791.607 2.968 1a1.006 1.006 0 00-.9 1.358A10.238 10.238 0 0012.12 9z" fill="#24ae5f"/><path d="M15.567 8.267a5.371 5.371 0 014.783 4.7s-3.67-.55-5.71.57H13z" fill="#f3d55b"/><path d="M13.32 17.63c.41-1.4.85-2.77 1.31-4.09h.01a53.606 53.606 0 012.06-5.02c.42-.88.86-1.72 1.32-2.53A1.985 1.985 0 0016.31 3h-.01a1.977 1.977 0 00-1.72.98c-.55.97-1.08 1.99-1.58 3.05v.01c-.3.64-.6 1.29-.88 1.96-.87 2.08-1.66 4.29-2.36 6.58L8.1 21.8v.01C4.52 37.13 4.07 53.7 4.01 57.99a.993.993 0 001 1.01h2a1 1 0 001-.98 193 193 0 013.42-32.71z" fill="#4fba6f"/><path d="M23.999 34.19h6v6.08h-6zM31.139 24.66c.56-2.176.85-4.413.861-6.66 0-7.18-3.58-15-8-15v20.8z" fill="#7f8c8d"/><path d="M29.99 34.172l2.998-5.192 5.261 3.038-2.997 5.191zM21.169 30.41a26.985 26.985 0 01-6.2-2.58c-6.21-3.59-11.2-10.6-8.99-14.43L24 23.8z" fill="#547580"/><rect fill="#f0c419" height="19" rx="2" width="8" x="22.999" y="40"/><rect fill="#f0c419" height="19" rx="2" transform="rotate(120 44.754 39.25)" width="8" x="40.753" y="29.75"/><path d="M33 29a5.985 5.985 0 01-3 5.19 5.961 5.961 0 01-6 0A6.012 6.012 0 0121 29a5.985 5.985 0 013-5.19v-.01a6.005 6.005 0 019 5.2z" fill="#95a5a5"/><circle cx="26.999" cy="29" fill="#547580" r="2"/></g></svg>