<svg height="512" viewBox="0 0 60 60" width="512" xmlns="http://www.w3.org/2000/svg"><g fill-rule="nonzero" transform="translate(0 -1)" fill="none"><path d="M28 30h4v22h-4z" fill="#95a5a5"/><path d="M14 61a1 1 0 01-.847-1.53l5-8a1.002 1.002 0 011.7 1.06l-5 8A1 1 0 0114 61zM46 61a1 1 0 01-.849-.47l-5-8a1.002 1.002 0 111.7-1.06l5 8A1 1 0 0146 61z" fill="#a56a43"/><path d="M8 53a1 1 0 01-1-1V33a1 1 0 012 0v19a1 1 0 01-1 1zM52 53a1 1 0 01-1-1V33a1 1 0 012 0v19a1 1 0 01-1 1z" fill="#24ae5f"/><path d="M8 52H5.963a5.081 5.081 0 01-4.931-3.748A1.01 1.01 0 012.025 47h.883A5.048 5.048 0 018 52zM13.975 47a1.01 1.01 0 01.993 1.252A5.081 5.081 0 0110.037 52H8a5.048 5.048 0 015.092-5zM52 52h-2.037a5.081 5.081 0 01-4.931-3.748A1.01 1.01 0 0146.025 47h.883A5.048 5.048 0 0152 52zM57.975 47a1.01 1.01 0 01.993 1.252A5.081 5.081 0 0154.037 52H52a5.048 5.048 0 015.092-5zM8 43H5.963a5.081 5.081 0 01-4.931-3.748A1.01 1.01 0 012.025 38h.883A5.048 5.048 0 018 43zM13.975 38a1.01 1.01 0 01.993 1.252A5.081 5.081 0 0110.037 43H8a5.048 5.048 0 015.092-5zM52 43h-2.037a5.081 5.081 0 01-4.931-3.748A1.01 1.01 0 0146.025 38h.883A5.048 5.048 0 0152 43zM57.975 38a1.01 1.01 0 01.993 1.252A5.081 5.081 0 0154.037 43H52a5.048 5.048 0 015.092-5z" fill="#4fba6f"/><path d="M26 18h8v8h-8z" fill="#2980ba"/><path d="M59 53H1a1 1 0 010-2h58a1 1 0 010 2z" fill="#cb8252"/><path d="M34 24v2.53c0 .309-.071.614-.21.89L32 31h-4l-1.79-3.58a1.974 1.974 0 01-.21-.89V24z" fill="#3b97d3"/><rect fill="#95a5a5" height="4" rx="2" width="14" x="23" y="15"/><g fill="#2fa8cc"><path d="M27.317 11a1 1 0 01-.944-.671 11.343 11.343 0 00-.373-.94 1 1 0 111.824-.82c.16.36.307.726.438 1.1A1 1 0 0127.317 11zM23.271 11.672a1 1 0 01-.942-.667c-.071-.2-.149-.4-.237-.587a1 1 0 111.816-.836c.113.247.215.5.306.756a1 1 0 01-.943 1.334zM23.937 5.894a.992.992 0 01-.668-.257 11.053 11.053 0 00-.861-.7 1 1 0 111.184-1.613c.352.26.69.535 1.014.827a1 1 0 01-.669 1.743zM19 3.217a.983.983 0 01-.256-.033c-.3-.079-.6-.145-.914-.2a1 1 0 01.339-1.97c.368.064.729.142 1.086.236A1 1 0 0119 3.217zM18 7.252a.972.972 0 01-.249-.032 6.61 6.61 0 00-.579-.122 1 1 0 01.33-1.973c.253.042.5.095.745.158A1 1 0 0118 7.252zM13 3.217a1 1 0 01-.255-1.967c.357-.094.718-.172 1.086-.236a1 1 0 11.338 1.972 9.9 9.9 0 00-.914.2 1.028 1.028 0 01-.255.031zM8.062 5.894a1 1 0 01-.668-1.743c.324-.292.662-.568 1.014-.827a1 1 0 011.184 1.613c-.299.219-.586.452-.861.7a.992.992 0 01-.669.257zM10.71 9a1 1 0 01-.662-1.75c.224-.2.457-.386.7-.559a1 1 0 111.168 1.623c-.188.137-.37.282-.544.436a1 1 0 01-.662.25zM5.087 9.979a1 1 0 01-.911-1.411c.17-.378.356-.745.559-1.1a1 1 0 111.741.985c-.172.304-.33.617-.476.939a1 1 0 01-.913.587zM4 15a1 1 0 01-1-1c0-.365.015-.726.045-1.083a1 1 0 111.992.166c-.024.3-.037.608-.037.917a1 1 0 01-1 1zM8 15a1 1 0 01-1-1c0-.254.01-.505.031-.753a1 1 0 111.992.168A7.468 7.468 0 009 14a1 1 0 01-1 1zM36.729 11.672a1 1 0 01-.943-1.334c.091-.258.193-.509.306-.756a1 1 0 111.816.836 6.985 6.985 0 00-.237.587 1 1 0 01-.942.667zM42 7.252a1 1 0 01-.247-1.969c.245-.063.492-.116.745-.158a1 1 0 01.33 1.973c-.2.032-.388.073-.579.122a.972.972 0 01-.249.032zM49.29 9a1 1 0 01-.662-.25 7.11 7.11 0 00-.544-.436 1 1 0 011.168-1.624c.243.175.476.362.7.559A1 1 0 0149.29 9zM52 15a1 1 0 01-1-1c0-.2-.008-.393-.023-.585a1 1 0 111.992-.168c.02.248.031.499.031.753a1 1 0 01-1 1zM32.683 11a1 1 0 01-.945-1.329c.133-.376.28-.743.438-1.1A1 1 0 0134 9.389c-.138.306-.262.62-.373.94a1 1 0 01-.944.671zM36.062 5.894a1 1 0 01-.668-1.743c.324-.292.662-.568 1.014-.827a1 1 0 011.184 1.613c-.299.219-.586.452-.861.7a.992.992 0 01-.669.257zM41 3.217a1 1 0 01-.255-1.967c.357-.094.718-.172 1.086-.236a1 1 0 11.338 1.972 9.9 9.9 0 00-.914.2 1.028 1.028 0 01-.255.031zM47 3.217a.983.983 0 01-.256-.033c-.3-.079-.6-.145-.914-.2a1 1 0 01.339-1.97c.368.064.729.142 1.086.236A1 1 0 0147 3.217zM51.937 5.894a.992.992 0 01-.668-.257 11.053 11.053 0 00-.861-.7 1 1 0 111.184-1.613c.352.26.69.535 1.014.827a1 1 0 01-.669 1.743zM54.913 9.979a1 1 0 01-.913-.59 11.578 11.578 0 00-.476-.939 1 1 0 011.741-.985c.2.358.386.725.559 1.1a1 1 0 01-.911 1.411zM56 15a1 1 0 01-1-1c0-.309-.013-.615-.037-.917a1 1 0 111.992-.166c.03.357.045.718.045 1.083a1 1 0 01-1 1zM19.873 14a1 1 0 01-.967-.75 3.044 3.044 0 00-.307-.75 1 1 0 011.732-1c.226.392.398.812.511 1.25a1 1 0 01-.969 1.25zM15 11.126a1 1 0 01-.248-1.969A5.048 5.048 0 0116 9a1 1 0 010 2 3.008 3.008 0 00-.751.1 1.025 1.025 0 01-.249.026zM12 15a1 1 0 01-1-1c0-.421.053-.84.157-1.249a1 1 0 011.938.5A3.008 3.008 0 0013 14a1 1 0 01-1 1zM40.127 14a1 1 0 01-.969-1.25c.113-.438.285-.858.511-1.25a1 1 0 011.732 1 3.044 3.044 0 00-.307.75 1 1 0 01-.967.75zM45 11.126c-.084 0-.168-.01-.25-.031A3.008 3.008 0 0044 11a1 1 0 010-2c.421 0 .84.053 1.249.157A1 1 0 0145 11.126zM48 15a1 1 0 01-1-1c0-.253-.032-.506-.095-.751a1 1 0 011.938-.5c.104.409.157.83.157 1.251a1 1 0 01-1 1zM4 20a1 1 0 01-1-1v-1a1 1 0 012 0v1a1 1 0 01-1 1zM8 20a1 1 0 01-1-1v-1a1 1 0 012 0v1a1 1 0 01-1 1zM12 20a1 1 0 01-1-1v-1a1 1 0 012 0v1a1 1 0 01-1 1zM48 20a1 1 0 01-1-1v-1a1 1 0 012 0v1a1 1 0 01-1 1zM52 20a1 1 0 01-1-1v-1a1 1 0 012 0v1a1 1 0 01-1 1zM56 20a1 1 0 01-1-1v-1a1 1 0 012 0v1a1 1 0 01-1 1zM4 25a1 1 0 01-1-1v-1a1 1 0 012 0v1a1 1 0 01-1 1zM8 25a1 1 0 01-1-1v-1a1 1 0 012 0v1a1 1 0 01-1 1zM12 25a1 1 0 01-1-1v-1a1 1 0 012 0v1a1 1 0 01-1 1zM48 25a1 1 0 01-1-1v-1a1 1 0 012 0v1a1 1 0 01-1 1zM52 25a1 1 0 01-1-1v-1a1 1 0 012 0v1a1 1 0 01-1 1zM56 25a1 1 0 01-1-1v-1a1 1 0 012 0v1a1 1 0 01-1 1zM4 30a1 1 0 01-1-1v-1a1 1 0 012 0v1a1 1 0 01-1 1zM8 30a1 1 0 01-1-1v-1a1 1 0 012 0v1a1 1 0 01-1 1zM12 30a1 1 0 01-1-1v-1a1 1 0 012 0v1a1 1 0 01-1 1zM48 30a1 1 0 01-1-1v-1a1 1 0 012 0v1a1 1 0 01-1 1zM52 30a1 1 0 01-1-1v-1a1 1 0 012 0v1a1 1 0 01-1 1zM56 30a1 1 0 01-1-1v-1a1 1 0 012 0v1a1 1 0 01-1 1z"/></g></g></svg>